# xmcd
#
# Track frame offsets: 
#        150
#        32040
#        54411
#        71501
#        88614
#        115460
#
# Disc length: 2378 seconds
#
# Revision: 0
# Processed by: cddbd v1.5.2PL0 Copyright (c) Steve Scherf et al.
# Submitted via: ExactAudioCopy v0.95b3
#
DISCID=4b094806
DTITLE=Chicago  - Louisville Convention Center, Louisville, KY - Disc 
DTITLE=1
DYEAR=1900
DGENRE=
TTITLE0=Introduction
TTITLE1=Call On Me
TTITLE2=Saturday In The Park
TTITLE3=Something In The City Changes People
TTITLE4=Beginnings
TTITLE5=Ballet for a Girl in Buchannon (Make Me Smile>So Much To Say, 
TTITLE5=So Much To Give>Anxiety's Moment>West Virginia Fantasies>Colou
TTITLE5=r My World>To Be Free>Now More Than Ever)
EXTD=
EXTT0=
EXTT1=
EXTT2=
EXTT3=
EXTT4=
EXTT5=
PLAYORDER=
